<?xml version="1.0" encoding="UTF-8" standalone="no"?>
<!-- Created with Inkscape (http://www.inkscape.org/) -->

<svg
   version="1.1"
   id="svg32"
   width="39"
   height="36"
   viewBox="0 0 38.999998 36"
   xmlns="http://www.w3.org/2000/svg"
   xmlns:svg="http://www.w3.org/2000/svg">
  <defs
     id="defs36">
    <linearGradient
       x1="0"
       y1="0"
       x2="1"
       y2="0"
       gradientUnits="userSpaceOnUse"
       gradientTransform="matrix(0,-177.34871,-177.34871,0,345.92871,444.71985)"
       spreadMethod="pad"
       id="linearGradient118">
      <stop
         style="stop-opacity:1;stop-color:#01aaed"
         offset="0"
         id="stop114" />
      <stop
         style="stop-opacity:1;stop-color:#263b98"
         offset="1"
         id="stop116" />
    </linearGradient>
    <linearGradient
       x1="0"
       y1="0"
       x2="1"
       y2="0"
       gradientUnits="userSpaceOnUse"
       gradientTransform="matrix(0,-177.47858,-177.47858,0,327.15997,444.71988)"
       spreadMethod="pad"
       id="linearGradient138">
      <stop
         style="stop-opacity:1;stop-color:#01aaed"
         offset="0"
         id="stop134" />
      <stop
         style="stop-opacity:1;stop-color:#263b98"
         offset="1"
         id="stop136" />
    </linearGradient>
    <linearGradient
       x1="0"
       y1="0"
       x2="1"
       y2="0"
       gradientUnits="userSpaceOnUse"
       gradientTransform="matrix(0,-177.47858,-177.47858,0,364.6499,444.71988)"
       spreadMethod="pad"
       id="linearGradient158">
      <stop
         style="stop-opacity:1;stop-color:#01aaed"
         offset="0"
         id="stop154" />
      <stop
         style="stop-opacity:1;stop-color:#263b98"
         offset="1"
         id="stop156" />
    </linearGradient>
    <linearGradient
       x1="0"
       y1="0"
       x2="1"
       y2="0"
       gradientUnits="userSpaceOnUse"
       gradientTransform="matrix(0,-177.47736,-177.47736,0,345.8999,444.7193)"
       spreadMethod="pad"
       id="linearGradient178">
      <stop
         style="stop-opacity:1;stop-color:#01aaed"
         offset="0"
         id="stop174" />
      <stop
         style="stop-opacity:1;stop-color:#263b98"
         offset="1"
         id="stop176" />
    </linearGradient>
    <linearGradient
       x1="0"
       y1="0"
       x2="1"
       y2="0"
       gradientUnits="userSpaceOnUse"
       gradientTransform="matrix(0,-177.47766,-177.47766,0,345.90994,444.71933)"
       spreadMethod="pad"
       id="linearGradient198">
      <stop
         style="stop-opacity:1;stop-color:#01aaed"
         offset="0"
         id="stop194" />
      <stop
         style="stop-opacity:1;stop-color:#263b98"
         offset="1"
         id="stop196" />
    </linearGradient>
  </defs>
  <g
     id="g40"
     transform="matrix(1.3333333,0,0,-1.3333333,0,960)">
    <g
       id="g511"
       transform="matrix(0.17411891,0,0,0.14836318,-45.487565,653.00196)">
      <path
         d="m 253.61127,258.58404 h 184.14647 l -1.98945,201.53109 -182.15702,3.50222 z"
         style="fill:none;fill-opacity:1;fill-rule:nonzero;stroke:none;stroke-width:0.216038"
         id="path42" />
      <g
         id="g110">
        <g
           id="g112">
          <path
             d="m 340.109,448.471 c -40.135,-2.795 -72.627,-35.308 -75.423,-75.423 v 0 c -3.177,-45.562 31.328,-83.947 75.423,-87.065 v 0 c 3.256,-0.22 5.81,-2.875 5.81,-6.152 v 0 -5.973 c 0,-1.869 1.972,-3.096 3.66,-2.271 v 0 c 35.851,17.936 67.179,42.023 75.584,76.809 v 0 c 0.201,0.846 0.381,1.69 0.583,2.555 v 0 c 0.08,0.543 0.201,1.085 0.281,1.628 v 0 c 0.081,0.323 0.141,0.663 0.181,1.005 v 0 c 0.081,0.483 0.161,0.966 0.242,1.448 v 0 c 0.2,1.348 0.382,2.715 0.502,4.101 v 0 c 0.1,1.066 0.182,2.132 0.262,3.218 v 0 c 0.04,0.604 0.06,1.227 0.08,1.849 v 0 c 0.04,1.006 0.08,2.012 0.08,3.038 v 0 c 0,44.905 -36.535,81.436 -81.449,81.436 v 0 c -1.924,0 -3.863,-0.067 -5.816,-0.203 m -64.242,-81.233 c 0,38.626 31.406,70.032 70.033,70.032 v 0 c 38.627,0 70.054,-31.406 70.054,-70.032 v 0 c 0,-38.627 -31.427,-70.054 -70.054,-70.054 v 0 c -38.627,0 -70.033,31.427 -70.033,70.054"
             style="fill:url(#linearGradient118);stroke:none"
             id="path120" />
        </g>
      </g>
      <g
         id="g122">
        <g
           id="g124">
          <g
             id="g130">
            <g
               id="g132">
              <path
                 d="m 321.932,350.126 c -0.262,0 -0.483,-0.202 -0.483,-0.462 v 0 -35.45 c 0,-0.18 0.121,-0.362 0.282,-0.422 v 0 c 3.358,-1.527 6.897,-2.754 10.535,-3.6 v 0 c 0.302,-0.08 0.604,0.162 0.604,0.464 v 0 39.008 c 0,0.26 -0.221,0.462 -0.483,0.462 v 0 z"
                 style="fill:url(#linearGradient138);stroke:none"
                 id="path140" />
            </g>
          </g>
        </g>
      </g>
      <g
         id="g142">
        <g
           id="g144">
          <g
             id="g150">
            <g
               id="g152">
              <path
                 d="m 359.431,350.126 c -0.261,0 -0.481,-0.202 -0.481,-0.462 v 0 -39.008 c 0,-0.302 0.301,-0.544 0.602,-0.464 v 0 c 3.639,0.846 7.179,2.073 10.536,3.6 v 0 c 0.162,0.06 0.262,0.242 0.262,0.422 v 0 35.45 c 0,0.26 -0.202,0.462 -0.462,0.462 v 0 z"
                 style="fill:url(#linearGradient158);stroke:none"
                 id="path160" />
            </g>
          </g>
        </g>
      </g>
      <g
         id="g162">
        <g
           id="g164">
          <g
             id="g170">
            <g
               id="g172">
              <path
                 d="m 332.87,424.402 c -3.981,-0.884 -7.801,-2.191 -11.421,-3.86 v 0 -35.752 c 0,-0.261 0.221,-0.461 0.483,-0.461 v 0 h 10.455 c 0.262,0 0.483,0.2 0.483,0.461 v 0 27.829 c 4.142,1.206 8.505,1.85 13.03,1.85 v 0 c 4.524,0 8.908,-0.644 13.05,-1.85 v 0 -27.829 c 0,-0.261 0.22,-0.461 0.481,-0.461 v 0 h 10.457 c 0.26,0 0.462,0.2 0.462,0.461 v 0 35.752 c -3.619,1.669 -7.439,2.976 -11.4,3.86 v 0 c -4.203,0.966 -8.566,1.468 -13.05,1.468 v 0 c -4.484,0 -8.848,-0.502 -13.03,-1.468"
                 style="fill:url(#linearGradient178);stroke:none"
                 id="path180" />
            </g>
          </g>
        </g>
      </g>
      <g
         id="g182">
        <g
           id="g184">
          <g
             id="g190">
            <g
               id="g192">
              <path
                 d="m 381.751,412.659 v -14.557 c 0,-0.101 0.04,-0.201 0.12,-0.281 v 0 c 5.891,-6.877 9.814,-15.483 10.939,-24.893 v 0 h -93.781 c 1.126,9.41 5.068,18.016 10.94,24.893 v 0 c 0.08,0.08 0.1,0.18 0.1,0.281 v 0 14.557 c 0,0.402 -0.463,0.625 -0.764,0.383 v 0 c -4.002,-3.218 -7.581,-6.918 -10.617,-11.06 v 0 c -6.112,-8.282 -10.094,-18.237 -11.14,-29.054 v 0 c -0.181,-1.871 -0.281,-3.76 -0.281,-5.69 v 0 c 0,-1.932 0.1,-3.841 0.281,-5.712 v 0 c 1.046,-10.797 5.028,-20.77 11.14,-29.054 v 0 c 3.036,-4.121 6.615,-7.841 10.617,-11.059 v 0 c 0.301,-0.241 0.764,-0.02 0.764,0.382 v 0 14.557 c 0,0.101 -0.02,0.202 -0.1,0.282 v 0 c -5.872,6.877 -9.814,15.461 -10.94,24.892 v 0 h 93.781 c -1.125,-9.431 -5.048,-18.015 -10.939,-24.892 v 0 c -0.08,-0.08 -0.12,-0.181 -0.12,-0.282 v 0 -14.557 c 0,-0.402 0.483,-0.623 0.784,-0.382 v 0 c 4.001,3.218 7.581,6.938 10.616,11.059 v 0 c 6.114,8.284 10.094,18.257 11.12,29.054 v 0 c 0.182,1.871 0.282,3.78 0.282,5.712 v 0 c 0,1.93 -0.1,3.819 -0.282,5.69 v 0 c -1.026,10.817 -5.006,20.772 -11.12,29.054 v 0 c -3.035,4.142 -6.615,7.842 -10.616,11.06 v 0 c -0.086,0.069 -0.187,0.1 -0.287,0.1 v 0 c -0.251,0 -0.497,-0.196 -0.497,-0.483"
                 style="fill:url(#linearGradient198);stroke:none"
                 id="path200" />
            </g>
          </g>
        </g>
      </g>
    </g>
  </g>
</svg>
